<?xml version="1.0" standalone="no"?>
<!DOCTYPE svg PUBLIC "-//W3C//DTD SVG 20010904//EN"
 "http://www.w3.org/TR/2001/REC-SVG-20010904/DTD/svg10.dtd">
<svg version="1.0" xmlns="http://www.w3.org/2000/svg"
 width="403.000000pt" height="403.000000pt" viewBox="0 0 403.000000 403.000000"
 preserveAspectRatio="xMidYMid meet">
<metadata>
Created by potrace 1.14, written by Peter Selinger 2001-2017
</metadata>
<g transform="translate(0.000000,403.000000) scale(0.100000,-0.100000)"
fill="#000000" stroke="none">
<path d="M1895 3793 c-138 -17 -320 -45 -365 -57 -30 -7 -95 -24 -145 -35 -98
-24 -188 -61 -220 -91 -11 -10 -57 -37 -102 -59 -67 -33 -89 -50 -125 -97 -23
-31 -51 -64 -61 -73 -10 -9 -27 -33 -38 -54 -11 -21 -26 -45 -34 -55 -71 -85
-184 -251 -211 -308 -33 -73 -86 -245 -104 -344 -50 -259 -67 -458 -51 -587
16 -125 100 -327 167 -401 112 -123 274 -218 509 -297 l100 -34 6 -173 c6
-162 9 -179 39 -263 18 -49 41 -107 51 -127 l19 -36 -63 -35 c-117 -66 -157
-123 -157 -227 0 -72 32 -151 81 -197 19 -17 69 -48 111 -68 75 -36 82 -37
215 -42 120 -4 145 -2 193 15 l56 20 39 -21 c35 -19 61 -22 208 -25 243 -6
424 31 532 107 22 15 57 34 77 40 23 8 71 43 119 88 61 58 87 92 111 142 60
126 46 280 -29 327 -15 10 -31 23 -35 28 -3 5 -4 79 -2 165 4 149 -7 254 -28
267 -19 12 -5 33 30 45 20 6 48 17 62 25 14 7 61 30 105 52 84 41 137 74 195
122 19 16 69 57 110 91 184 151 277 322 331 604 19 98 20 130 14 298 -6 185
-7 190 -40 267 -19 44 -45 114 -58 157 -27 84 -66 158 -148 280 -94 141 -195
232 -364 330 -44 26 -87 52 -95 59 -44 37 -318 153 -410 173 -42 10 -527 13
-595 4z m650 -87 c111 -35 272 -110 351 -163 32 -22 77 -50 99 -62 195 -105
365 -315 450 -557 15 -44 41 -110 59 -149 30 -69 31 -73 34 -253 4 -215 -7
-315 -49 -443 -69 -210 -127 -293 -313 -443 -128 -104 -223 -166 -291 -192
-27 -10 -63 -26 -80 -35 -16 -9 -53 -25 -82 -35 -29 -10 -55 -24 -58 -32 -3
-7 7 -35 23 -60 27 -46 27 -50 32 -261 l5 -214 40 -23 c51 -28 69 -70 62 -145
-7 -80 -47 -153 -128 -231 -72 -70 -110 -91 -118 -67 -8 27 -72 78 -109 89
-79 21 -162 4 -162 -35 0 -23 19 -28 89 -26 59 2 70 -1 94 -23 35 -32 34 -50
-3 -76 -71 -51 -226 -80 -442 -82 -171 -2 -175 -2 -228 25 -101 50 -130 91
-130 182 0 75 30 125 100 170 55 35 101 38 136 9 41 -33 98 -31 192 8 95 39
170 112 275 268 9 14 37 51 62 83 52 68 59 107 20 107 -17 0 -31 -9 -43 -28
-9 -16 -29 -44 -44 -63 -14 -19 -61 -81 -103 -137 -78 -104 -136 -157 -184
-169 -14 -3 -39 -12 -55 -20 -31 -16 -66 -11 -90 13 -23 23 -20 40 17 81 45
51 66 86 152 248 68 127 114 278 101 329 -14 57 -66 30 -66 -34 0 -57 -84
-279 -113 -301 -5 -3 -7 -8 -5 -11 5 -8 -100 -171 -137 -212 -27 -29 -33 -44
-29 -62 6 -23 4 -24 -38 -24 -53 0 -105 -33 -158 -99 -64 -82 -77 -170 -36
-257 13 -28 29 -55 35 -58 34 -21 -31 -46 -120 -46 -181 0 -327 66 -370 168
-46 106 -8 191 112 252 52 27 85 26 105 -5 13 -20 24 -25 59 -25 52 0 92 14
123 42 19 19 22 32 22 100 0 69 -4 88 -41 170 -23 51 -61 145 -86 208 -52 134
-65 152 -89 128 -14 -14 -15 -23 -6 -55 15 -56 81 -224 96 -248 32 -48 66
-154 66 -202 0 -55 -9 -67 -55 -77 -26 -6 -36 -1 -67 31 -38 39 -59 81 -110
218 -29 76 -31 90 -35 270 -3 112 -10 195 -16 203 -6 7 -20 11 -31 8 -35 -9
-221 56 -351 121 -102 51 -295 226 -295 267 0 4 -19 52 -41 109 -41 101 -41
104 -46 257 -5 141 -2 172 26 340 31 180 86 391 118 453 l16 31 18 -36 c22
-43 54 -68 87 -68 42 0 475 178 500 206 34 39 26 102 -20 152 -34 35 -77 29
-203 -28 -44 -21 -308 -120 -311 -118 -2 3 8 18 111 158 33 45 74 101 90 125
46 65 99 125 111 125 5 0 59 29 120 65 122 73 186 100 271 114 32 5 81 17 108
25 28 9 64 16 80 16 17 0 64 7 105 16 92 19 274 29 530 29 187 0 199 -1 285
-29z"/>
<path d="M1953 3198 c-31 -33 -54 -94 -47 -122 8 -33 40 -61 99 -87 28 -12
106 -48 175 -81 175 -83 236 -108 264 -108 31 0 84 62 92 109 12 60 -7 77
-171 155 -363 172 -374 175 -412 134z"/>
<path d="M1095 2760 c-78 -32 -106 -152 -52 -221 42 -54 133 -68 189 -28 78
56 76 190 -4 239 -34 21 -97 26 -133 10z"/>
<path d="M1990 2745 c-49 -22 -73 -59 -78 -122 -4 -44 0 -59 19 -88 80 -117
251 -66 251 75 0 108 -97 176 -192 135z"/>
<path d="M1494 2205 c-7 -18 3 -35 22 -35 20 0 30 30 13 41 -20 12 -29 11 -35
-6z"/>
<path d="M1621 2211 c-19 -12 -6 -43 16 -39 10 2 18 12 18 22 0 22 -14 29 -34
17z"/>
<path d="M1470 1825 c0 -13 17 -15 112 -13 78 2 113 7 116 16 3 9 -24 12 -112
12 -98 0 -116 -2 -116 -15z"/>
</g>
</svg>
